<svg width="95" height="94" viewBox="0 0 95 94" fill="none" xmlns="http://www.w3.org/2000/svg">
<rect width="95" height="94" fill="#FFF9F9"/>
<path d="M47 92C71.854 92 92 71.853 92 47C92 22.147 71.854 2 47 2C22.146 2 2 22.147 2 47C2 71.853 22.146 92 47 92ZM47 3C71.262 3 91 22.738 91 47C91 71.262 71.262 91 47 91C22.738 91 3 71.262 3 47C3 22.738 22.738 3 47 3Z" fill="#FF0C0C"/>
<rect x="35" y="76" width="51" height="8" fill="white"/>
<path d="M36 81.7724L36.3422 81.3742C36.504 81.5401 36.6927 81.675 36.9084 81.7787C37.1241 81.8824 37.3481 81.9342 37.5804 81.9342C37.8791 81.9342 38.1093 81.8658 38.2711 81.7289C38.437 81.5961 38.52 81.4198 38.52 81.2C38.52 81.088 38.5013 80.9905 38.464 80.9075C38.4225 80.8287 38.3686 80.7603 38.3022 80.7022C38.2359 80.6483 38.157 80.5985 38.0658 80.5529C37.9745 80.5073 37.877 80.4595 37.7733 80.4098L37.1324 80.1298C37.0246 80.0841 36.9167 80.0281 36.8089 79.9618C36.701 79.8995 36.6036 79.8228 36.5164 79.7315C36.4293 79.6403 36.3588 79.5304 36.3049 79.4018C36.2468 79.2773 36.2178 79.1342 36.2178 78.9724C36.2178 78.8024 36.253 78.6447 36.3236 78.4995C36.3982 78.3544 36.4978 78.2278 36.6222 78.12C36.7467 78.0121 36.8939 77.9292 37.064 77.8711C37.2341 77.8089 37.4228 77.7778 37.6302 77.7778C37.8999 77.7778 38.1487 77.8296 38.3769 77.9333C38.605 78.037 38.7979 78.1698 38.9556 78.3315L38.6507 78.7049C38.5138 78.5721 38.3624 78.4684 38.1964 78.3938C38.0305 78.3191 37.8418 78.2818 37.6302 78.2818C37.3772 78.2818 37.176 78.3398 37.0267 78.456C36.8732 78.5721 36.7964 78.7318 36.7964 78.9351C36.7964 79.0471 36.8172 79.1404 36.8587 79.2151C36.9043 79.2898 36.9624 79.3561 37.0329 79.4142C37.1076 79.4681 37.1884 79.5179 37.2756 79.5635C37.3627 79.605 37.4519 79.6444 37.5431 79.6818L38.1778 79.9555C38.3064 80.0095 38.4267 80.0717 38.5387 80.1422C38.6548 80.2127 38.7544 80.2957 38.8373 80.3911C38.9161 80.4824 38.9804 80.5923 39.0302 80.7209C39.0759 80.8453 39.0987 80.9905 39.0987 81.1564C39.0987 81.3307 39.0634 81.4966 38.9929 81.6542C38.9224 81.8077 38.8228 81.9425 38.6942 82.0587C38.5615 82.1748 38.3997 82.2661 38.2089 82.3324C38.0222 82.3988 37.8107 82.432 37.5742 82.432C37.259 82.432 36.9665 82.3739 36.6969 82.2578C36.4273 82.1375 36.195 81.9757 36 81.7724ZM39.9822 82.3511V77.8587H42.5707V78.3378H40.5547V79.7502H42.2596V80.2355H40.5547V81.8658H42.6391V82.3511H39.9822ZM44.1573 78.3191V79.9929H44.9102C45.2628 79.9929 45.5324 79.9203 45.7191 79.7751C45.9058 79.6299 45.9991 79.4121 45.9991 79.1218C45.9991 78.8231 45.9058 78.6157 45.7191 78.4995C45.5324 78.3793 45.2628 78.3191 44.9102 78.3191H44.1573ZM46.7022 82.3511H46.0551L44.9724 80.4533H44.1573V82.3511H43.5911V77.8587H44.9973C45.2255 77.8587 45.435 77.8815 45.6258 77.9271C45.8207 77.9686 45.9887 78.0412 46.1298 78.1449C46.2667 78.2444 46.3745 78.373 46.4533 78.5307C46.5321 78.6924 46.5716 78.8895 46.5716 79.1218C46.5716 79.4744 46.4803 79.7544 46.2978 79.9618C46.1153 80.1733 45.8705 80.3164 45.5636 80.3911L46.7022 82.3511ZM47.5671 82.3511V77.8587H48.1333V82.3511H47.5671ZM49.9316 80.5218H51.2756L51.064 79.8373C50.981 79.5884 50.9043 79.3395 50.8338 79.0907C50.7591 78.8418 50.6865 78.5867 50.616 78.3253H50.5849C50.5185 78.5867 50.448 78.8418 50.3733 79.0907C50.3028 79.3395 50.2261 79.5884 50.1431 79.8373L49.9316 80.5218ZM51.848 82.3511L51.4187 80.9822H49.7884L49.3529 82.3511H48.7742L50.2924 77.8587H50.9333L52.4578 82.3511H51.848ZM53.0924 82.3511V77.8587H53.6587V81.8658H55.6249V82.3511H53.0924ZM58.624 82.3511L57.1867 77.8587H57.7964L58.512 80.2853C58.595 80.555 58.6676 80.8038 58.7298 81.032C58.792 81.2601 58.8646 81.507 58.9476 81.7724H58.9787C59.0616 81.507 59.1342 81.2601 59.1964 81.032C59.2587 80.8038 59.3292 80.555 59.408 80.2853L60.1298 77.8587H60.7084L59.2836 82.3511H58.624ZM61.3244 82.3511V77.8587H61.8907V82.3511H61.3244ZM63.1227 82.3511V77.8587H65.7111V78.3378H63.6951V79.7502H65.4V80.2355H63.6951V81.8658H65.7796V82.3511H63.1227ZM67.2231 82.3511L66.2711 77.8587H66.8622L67.3351 80.304C67.3766 80.5529 67.4201 80.7955 67.4658 81.032C67.5114 81.2684 67.555 81.509 67.5964 81.7538H67.6213C67.6711 81.509 67.723 81.2664 67.7769 81.0258C67.835 80.7852 67.8889 80.5446 67.9387 80.304L68.5609 77.8587H69.0773L69.7058 80.304C69.7597 80.5404 69.8136 80.781 69.8676 81.0258C69.9215 81.2664 69.9754 81.509 70.0293 81.7538H70.0604C70.1019 81.509 70.1434 81.2664 70.1849 81.0258C70.2222 80.7852 70.2637 80.5446 70.3093 80.304L70.7822 77.8587H71.3298L70.4027 82.3511H69.7182L69.04 79.6507C68.9985 79.4764 68.9612 79.3064 68.928 79.1404C68.8907 78.9704 68.8554 78.8003 68.8222 78.6302H68.7911C68.7538 78.8003 68.7164 78.9704 68.6791 79.1404C68.6418 79.3064 68.6044 79.4764 68.5671 79.6507L67.9013 82.3511H67.2231ZM73.4951 82.3511V77.8587H74.0613V81.8658H76.0276V82.3511H73.4951ZM76.824 82.3511V77.8587H77.3902V82.3511H76.824ZM78.2924 81.7724L78.6347 81.3742C78.7964 81.5401 78.9852 81.675 79.2009 81.7787C79.4166 81.8824 79.6406 81.9342 79.8729 81.9342C80.1716 81.9342 80.4018 81.8658 80.5636 81.7289C80.7295 81.5961 80.8124 81.4198 80.8124 81.2C80.8124 81.088 80.7938 80.9905 80.7564 80.9075C80.715 80.8287 80.661 80.7603 80.5947 80.7022C80.5283 80.6483 80.4495 80.5985 80.3582 80.5529C80.267 80.5073 80.1695 80.4595 80.0658 80.4098L79.4249 80.1298C79.317 80.0841 79.2092 80.0281 79.1013 79.9618C78.9893 79.8995 78.8919 79.8228 78.8089 79.7315C78.7218 79.6403 78.6492 79.5304 78.5911 79.4018C78.5372 79.2773 78.5102 79.1342 78.5102 78.9724C78.5102 78.8024 78.5455 78.6447 78.616 78.4995C78.6865 78.3544 78.7861 78.2278 78.9147 78.12C79.0391 78.0121 79.1864 77.9292 79.3564 77.8711C79.5265 77.8089 79.7153 77.7778 79.9227 77.7778C80.1923 77.7778 80.4412 77.8296 80.6693 77.9333C80.8975 78.037 81.0904 78.1698 81.248 78.3315L80.9431 78.7049C80.8062 78.5721 80.6548 78.4684 80.4889 78.3938C80.3188 78.3191 80.1301 78.2818 79.9227 78.2818C79.6696 78.2818 79.4684 78.3398 79.3191 78.456C79.1656 78.5721 79.0889 78.7318 79.0889 78.9351C79.0889 79.0471 79.1096 79.1404 79.1511 79.2151C79.1967 79.2898 79.2548 79.3561 79.3253 79.4142C79.4 79.4681 79.4809 79.5179 79.568 79.5635C79.6551 79.605 79.7443 79.6444 79.8356 79.6818L80.4702 79.9555C80.5988 80.0095 80.7191 80.0717 80.8311 80.1422C80.9473 80.2127 81.0447 80.2957 81.1236 80.3911C81.2065 80.4824 81.2729 80.5923 81.3227 80.7209C81.3683 80.8453 81.3911 80.9905 81.3911 81.1564C81.3911 81.3307 81.3559 81.4966 81.2853 81.6542C81.2148 81.8077 81.1132 81.9425 80.9804 82.0587C80.8477 82.1748 80.688 82.2661 80.5013 82.3324C80.3147 82.3988 80.1031 82.432 79.8667 82.432C79.5514 82.432 79.259 82.3739 78.9893 82.2578C78.7197 82.1375 78.4874 81.9757 78.2924 81.7724ZM83.0711 82.3511V78.3378H81.7147V77.8587H85V78.3378H83.6436V82.3511H83.0711Z" fill="#300000"/>
<path d="M49.5147 58.9618C47.7973 56.3982 45.632 56 43.1431 56C40.2809 56 36.448 57.1449 36.5227 60.8284C36.5227 64.0391 39.7831 64.6862 42.9689 65.3084C45.8311 65.856 48.7182 66.4284 48.6933 69.0418C48.6933 72.128 45.2836 72.7253 43.1431 72.7253C41.0027 72.7253 38.2649 71.68 37.1947 69.5644L36 70.1618C37.344 72.8249 40.4302 73.9449 43.1431 73.9449C46.0551 73.9449 50.0124 72.9991 50.0373 69.0667C50.0373 65.3084 46.5529 64.7111 43.1929 64.064C40.256 63.5164 37.8667 62.9938 37.8667 60.7787C37.8667 57.9911 41.1022 57.2444 43.1431 57.2444C45.1093 57.2693 47.1502 57.568 48.4196 59.6089L49.5147 58.9618ZM65.8916 56.2489L59.4453 72.1778L52.9991 56.2489H51.5556L58.7236 73.7209H60.1671L67.3351 56.2489H65.8916ZM69.6498 56.2489V73.6711H80.8V72.4018H70.9938V56.2489H69.6498Z" fill="#300000"/>
</svg>
